<?xml version="1.0" standalone="no"?>
<!DOCTYPE svg PUBLIC "-//W3C//DTD SVG 20010904//EN"
 "http://www.w3.org/TR/2001/REC-SVG-20010904/DTD/svg10.dtd">
<svg version="1.0" xmlns="http://www.w3.org/2000/svg"
 width="703.000000pt" height="1137.000000pt" viewBox="0 0 703.000000 1137.000000"
 preserveAspectRatio="xMidYMid meet">

<g transform="translate(0.000000,1137.000000) scale(0.100000,-0.100000)"
fill="#FFFFFF" stroke="none">
<path d="M3240 11216 l-51 -154 50 -111 51 -110 0 -528 -1 -528 -52 -107 -52
-107 -174 95 -174 96 -81 -21 c-104 -28 -262 -105 -347 -169 -209 -159 -318
-369 -344 -664 l-6 -68 304 0 304 0 6 51 c9 74 49 154 89 179 52 31 78 26 128
-26 25 -25 75 -68 112 -96 l68 -51 2 -1305 3 -1305 209 372 c115 204 213 370
218 369 4 -2 104 -168 221 -370 118 -202 217 -365 220 -361 4 3 7 593 7 1309
l0 1303 21 12 c11 6 63 46 115 90 52 43 102 79 113 79 27 0 82 -41 102 -75 16
-27 29 -71 44 -147 l5 -28 300 0 300 0 0 43 c0 63 -27 214 -49 279 -71 207
-220 378 -423 487 -81 44 -241 101 -283 101 -15 0 -102 -39 -192 -86 -90 -47
-168 -84 -174 -82 -5 2 -32 52 -59 111 l-50 108 0 516 0 516 50 109 c28 60 50
116 50 124 0 8 -21 80 -47 160 l-47 144 -217 0 -217 0 -52 -154z m333 -2279
c32 -57 57 -108 57 -114 0 -19 -110 -208 -121 -208 -6 0 -38 46 -70 102 l-60
102 62 110 c35 61 66 111 69 111 4 0 32 -47 63 -103z"/>
<path d="M2800 8179 c-369 -152 -831 -301 -1205 -388 -384 -88 -614 -119 -980
-131 -220 -7 -285 -13 -350 -29 -165 -43 -235 -135 -207 -271 26 -121 120
-272 291 -465 84 -94 211 -216 211 -202 0 3 -34 74 -75 159 -141 287 -223 535
-197 593 14 29 2 27 282 65 659 91 1319 230 1720 363 280 93 464 181 592 281
52 42 90 87 71 85 -4 0 -73 -27 -153 -60z"/>
<path d="M4073 8219 c8 -11 32 -35 53 -53 300 -252 1097 -479 2288 -651 133
-19 253 -35 268 -35 32 0 58 -32 58 -71 0 -82 -81 -306 -206 -567 -83 -174
-79 -177 56 -35 176 184 268 305 330 435 72 149 66 244 -17 318 -81 71 -223
100 -493 100 -575 0 -1398 196 -2208 525 -73 30 -136 55 -138 55 -3 0 1 -9 9
-21z"/>
<path d="M1905 7566 c-654 -103 -890 -684 -689 -1696 61 -306 178 -691 308
-1015 l44 -110 240 -3 239 -2 338 616 c235 428 336 620 329 629 -5 7 -38 49
-74 94 -160 196 -235 399 -209 562 19 121 103 249 162 249 52 0 120 -67 161
-158 29 -64 39 -52 34 41 -10 187 -136 327 -293 327 -96 0 -206 -82 -259 -193
-67 -142 -88 -347 -51 -507 30 -130 125 -310 204 -384 17 -17 31 -35 31 -42 0
-7 -130 -228 -289 -491 l-289 -478 -69 -3 -68 -3 -13 33 c-7 18 -44 125 -82
238 -223 664 -278 1267 -153 1664 100 318 292 515 603 617 l85 28 -80 0 c-44
-1 -116 -7 -160 -13z"/>
<path d="M4980 7551 c117 -39 154 -56 234 -108 221 -143 347 -351 413 -678 25
-127 25 -518 0 -690 -47 -314 -132 -647 -242 -947 l-47 -128 -67 0 -68 0 -288
478 c-158 262 -290 480 -292 485 -2 4 25 44 61 89 131 163 188 323 189 523 1
349 -179 577 -404 512 -126 -37 -219 -178 -219 -332 0 -49 15 -78 24 -47 14
42 87 143 118 162 47 28 72 25 117 -15 44 -40 87 -128 102 -211 31 -167 -56
-387 -239 -602 l-56 -66 23 -40 c12 -23 165 -301 339 -619 l317 -577 239 2
240 3 48 120 c27 66 80 212 118 325 257 767 323 1389 188 1800 -69 213 -214
392 -389 480 -131 66 -319 110 -469 110 l-75 -1 85 -28z"/>
<path d="M872 7459 c-122 -17 -237 -39 -268 -50 -104 -39 -154 -108 -135 -189
4 -19 33 -84 63 -145 62 -122 157 -338 255 -580 36 -88 66 -161 67 -162 0 -1
2 78 2 175 4 445 87 758 244 923 l56 59 -36 -1 c-19 -1 -131 -14 -248 -30z"/>
<path d="M5921 7432 c97 -100 174 -285 213 -509 22 -129 39 -390 34 -501 -3
-51 -4 -91 -2 -89 2 1 41 95 87 207 110 268 199 467 248 558 72 135 73 200 4
260 -55 49 -127 69 -371 101 -125 17 -237 31 -249 31 -17 0 -11 -10 36 -58z"/>
<path d="M0 7124 c0 -66 99 -263 285 -564 312 -507 460 -838 615 -1375 89
-310 224 -868 276 -1144 29 -154 42 -361 25 -403 -25 -66 -103 -11 -203 143
-28 44 -53 77 -55 75 -7 -7 49 -178 97 -299 126 -311 231 -353 304 -123 45
142 60 247 60 421 -1 242 -33 456 -119 790 -129 503 -411 1248 -660 1745 -81
162 -115 210 -240 336 -60 60 -166 181 -235 267 -68 86 -130 157 -137 157 -7
0 -13 -11 -13 -26z"/>
<path d="M6895 7013 c-60 -75 -168 -195 -239 -267 -173 -175 -207 -229 -366
-581 -460 -1018 -711 -1923 -670 -2421 24 -291 98 -478 182 -456 73 19 184
237 272 531 8 28 13 51 11 51 -2 0 -29 -38 -59 -85 -68 -104 -136 -175 -169
-175 -93 0 -55 301 138 1098 195 801 357 1218 688 1762 171 282 228 381 284
495 57 117 76 186 52 184 -8 0 -63 -62 -124 -136z"/>
<path d="M2953 5732 c-304 -526 -555 -965 -558 -974 -7 -17 50 -18 1114 -18
723 0 1121 3 1121 10 0 10 -408 718 -544 945 -40 66 -184 314 -321 550 -136
237 -251 433 -254 437 -4 4 -255 -423 -558 -950z m973 -269 c-78 -137 -203
-353 -276 -480 -103 -179 -137 -230 -146 -220 -12 13 -531 909 -540 932 -5 13
60 15 549 15 l556 0 -143 -247z"/>
<path d="M3087 4108 c-4 -205 -7 -809 -8 -1343 -2 -963 -2 -971 20 -1070 16
-74 23 -149 28 -290 6 -217 -7 -325 -56 -450 l-28 -73 231 -432 c127 -238 236
-433 240 -434 5 0 110 194 233 432 l225 434 -21 48 c-81 189 -93 562 -25 822
12 48 15 254 17 1390 l2 1333 -426 3 -426 2 -6 -372z m539 214 c163 -83 201
-304 74 -430 -132 -132 -358 -95 -436 72 -67 144 9 324 156 371 59 19 154 13
206 -13z m-28 -780 c18 -8 45 -31 60 -50 24 -31 27 -45 27 -107 0 -63 -3 -76
-28 -108 -69 -90 -188 -98 -268 -18 -64 64 -74 151 -26 221 56 83 141 105 235
62z m-27 -601 c47 -47 34 -117 -27 -146 -43 -20 -77 -11 -110 28 -75 89 55
200 137 118z"/>
<path d="M5290 4163 c-108 -555 -252 -967 -411 -1178 -52 -68 -120 -125 -148
-125 -9 1 -50 49 -92 108 l-76 107 -224 0 -224 0 0 -140 0 -140 143 -3 142 -3
116 -177 c64 -97 117 -178 119 -180 6 -7 87 35 141 74 275 195 468 679 528
1324 16 168 32 500 24 500 -3 0 -20 -75 -38 -167z"/>
<path d="M1705 4125 c12 -495 97 -924 245 -1230 109 -224 255 -388 402 -450
l38 -15 117 180 118 180 143 0 142 0 0 145 0 145 -223 0 -223 0 -78 -110 c-51
-72 -84 -110 -96 -110 -28 0 -124 93 -175 170 -141 212 -265 575 -371 1085
l-44 210 5 -200z"/>
<path d="M5483 3693 c-4 -37 -8 -156 -7 -263 1 -225 18 -312 80 -413 29 -47
35 -65 30 -90 -30 -158 -508 -591 -1244 -1125 l-203 -147 -25 -82 c-57 -186
-66 -292 -29 -333 41 -45 78 -24 356 198 925 737 1430 1290 1429 1565 0 70
-14 94 -88 149 -35 26 -77 64 -94 85 -65 82 -129 242 -168 421 -12 53 -23 98
-25 100 -2 2 -7 -27 -12 -65z"/>
<path d="M1546 3695 c-66 -358 -127 -490 -268 -579 -60 -38 -81 -76 -81 -145
3 -248 396 -706 1133 -1317 296 -246 502 -404 540 -414 68 -19 100 34 86 143
-8 64 -53 232 -72 268 -7 15 -60 59 -116 100 -191 135 -572 426 -733 559 -187
155 -446 410 -500 492 -50 77 -57 130 -21 183 15 21 37 70 49 109 20 65 22 90
21 286 -1 149 -5 236 -16 285 l-15 70 -7 -40z"/>
</g>
</svg>
